<svg xmlns="http://www.w3.org/2000/svg" viewBox="0 0 120 32"><title>edonet</title><path d="M14.5872,16.7453a2.7153,2.7153,0,0,1,.9277.1484,1.9617,1.9617,0,0,1,.668.39,1.5426,1.5426,0,0,1,.39.5752,1.8449,1.8449,0,0,1,.13.668,2.4186,2.4186,0,0,1-.2041.9834,3.8356,3.8356,0,0,1-.5566.8906,6.4127,6.4127,0,0,1-.8164.8164,7.4005,7.4005,0,0,1-1.0391.7236q-0.5757.334-1.1875,0.6123t-1.2617.52q-0.65.2417-1.2988,0.4268-0.65.186-1.2432,0.2969-0.0747.4453-.1484,0.8164a2.4666,2.4666,0,0,0-.0371.7422,2.1006,2.1006,0,0,0,.13.7979,1.61,1.61,0,0,0,.3525.5381,1.2689,1.2689,0,0,0,.501.3154,1.6771,1.6771,0,0,0,.5381.0928,2.9656,2.9656,0,0,0,.7793-0.1113,3.8065,3.8065,0,0,0,.8164-0.334q0.4072-.2227.8535-0.52a10.5022,10.5022,0,0,0,.8721-0.6494q0.4263-.3516.8535-0.7422t0.8164-.7979q0.39-.4072.7793-0.8164,0.39-.4072.7236-0.8164c0.0488-.0488.1045-0.1055,0.167-0.167a0.326,0.326,0,0,1,.2412-0.0928,0.2141,0.2141,0,0,1,.1113.0742,0.1227,0.1227,0,0,1,.0371.1484,2.1673,2.1673,0,0,1-.2412.4082,6.9638,6.9638,0,0,1-.5566.6865q-0.353.39-.7979,0.8721t-0.9834.9648q-0.5391.4834-1.1133,0.9277a8.9267,8.9267,0,0,1-1.1875.7793,6.6591,6.6591,0,0,1-1.2061.52,3.9879,3.9879,0,0,1-1.1875.1855,2.791,2.791,0,0,1-1.2617-.2969,2.9847,2.9847,0,0,1-1.0205-.835,4.0606,4.0606,0,0,1-.668-1.2617,5.0759,5.0759,0,0,1-.2412-1.6143,4.8473,4.8473,0,0,1,.0742-0.835c0.0488-.2842.1113-0.5625,0.1855-0.835a2.4741,2.4741,0,0,0-.2783.334,1.3,1.3,0,0,1-.2783.2969,0.583,0.583,0,0,1-.1484.1113,0.3211,0.3211,0,0,1-.1484.0371,0.3242,0.3242,0,0,1-.13-0.13,0.108,0.108,0,0,1-.0186-0.13c0.1-.1484.2344-0.3457,0.4082-0.5937A9.7634,9.7634,0,0,1,7.3323,21.05q0.39-.4453.8906-0.9463T9.2805,19.12a13.4384,13.4384,0,0,1,1.2061-.9277,11.1131,11.1131,0,0,1,1.3174-.7793,7.115,7.115,0,0,1,1.373-.52A4.5791,4.5791,0,0,1,14.5872,16.7453Zm0.1484,0.4453a2.0856,2.0856,0,0,0-.835.1855,4.3855,4.3855,0,0,0-.8535.501,7.3466,7.3466,0,0,0-.835.7236q-0.4087.4087-.7979,0.8721a9.6406,9.6406,0,0,0-.7236.9834q-0.334.52-.6123,1.002a9.7429,9.7429,0,0,0-.4824.9463,7.2729,7.2729,0,0,0-.3154.835,8.3962,8.3962,0,0,0,1.0947-.2969,9.72,9.72,0,0,0,1.0762-.4453,8.6346,8.6346,0,0,0,1.0391-.5937,11.0223,11.0223,0,0,0,.9463-0.7051,8.1614,8.1614,0,0,0,.8164-0.7793,6.0958,6.0958,0,0,0,.6309-0.8164,4.4939,4.4939,0,0,0,.4082-0.7979,2.1356,2.1356,0,0,0,.1484-0.7607,0.947,0.947,0,0,0-.0557-0.334,0.9015,0.9015,0,0,0-.1484-0.26,0.7529,0.7529,0,0,0-.2412-0.1855A0.6026,0.6026,0,0,0,14.7356,17.1906Z"/><path d="M38.2259,4.2765q-0.7427,1.3733-1.67,2.9688t-1.93,3.3213q-1.002,1.7256-2.041,3.47T30.6,17.4133q-0.9463,1.6333-1.7812,3.1172t-1.4658,2.6533q-0.6313,1.1689-.9834,1.9668a2.5909,2.5909,0,0,0-.3154,1.0947,0.6945,0.6945,0,0,0,.0557.2783,0.9348,0.9348,0,0,0,.13.2227,0.598,0.598,0,0,0,.167.1484,0.3885,0.3885,0,0,0,.2041.0557,3.015,3.015,0,0,0,.5752-0.2412,4.4475,4.4475,0,0,0,.6494-0.4268q0.334-.2593.7051-0.5752t0.7422-.668q0.3706-.3516.7236-0.7236t0.6865-.7422q0.334-.3706.6123-0.6865t0.501-.5752a1.1444,1.1444,0,0,1,.2412-0.1855,0.4965,0.4965,0,0,1,.2412-0.0742,0.2037,0.2037,0,0,1,.1484.0928,0.153,0.153,0,0,1,.0371.167q-0.2974.4087-.668,0.8721t-0.7979.9277q-0.4277.4644-.8721,0.9092t-0.9092.8535q-0.4644.4087-.9277,0.7422a9.6675,9.6675,0,0,1-.8906.5752,3.954,3.954,0,0,1-.7979.3525,2.3578,2.3578,0,0,1-.668.1113,3.8439,3.8439,0,0,1-.5566-0.1113,0.9945,0.9945,0,0,1-.4639-0.2969,1.6954,1.6954,0,0,1-.334-0.5752,4.2819,4.2819,0,0,1-.2041-0.9092,1.9152,1.9152,0,0,1,.0186-0.2227c0.0117-.0986.03-0.2227,0.0557-0.3711s0.0488-.2969.0742-0.4453,0.0488-.2842.0742-0.4082q-0.4834.5566-1.0205,1.1318a11.3847,11.3847,0,0,1-1.1318,1.0576,5.25,5.25,0,0,1-1.2432.7607,3.5,3.5,0,0,1-1.3916.2783,1.6918,1.6918,0,0,1-1.0391-.39,2.493,2.493,0,0,1-.6494-0.8906,4.3862,4.3862,0,0,1-.334-1.15,7.726,7.726,0,0,1-.0928-1.1689c0.0244-.2969.0615-0.6055,0.1113-0.9277s0.0859-.6309.1113-0.9277a1.455,1.455,0,0,0-.2041.26,0.7124,0.7124,0,0,1-.2041.2227,1.1082,1.1082,0,0,1-.2041.1113,0.2825,0.2825,0,0,1-.2041,0,0.2363,0.2363,0,0,1-.1113-0.13,0.12,0.12,0,0,1,0-.13,15.6129,15.6129,0,0,1,2.0039-2.3193,17.2257,17.2257,0,0,1,2.2451-1.8184,11.4922,11.4922,0,0,1,2.2266-1.1875,5.533,5.533,0,0,1,1.9854-.4268,2.2754,2.2754,0,0,1,.6865.1113,2.456,2.456,0,0,1,.6494.3154,1.9546,1.9546,0,0,1,.501.501,1.4191,1.4191,0,0,1,.2412.668,2.5318,2.5318,0,0,1-.0371.4082c-0.0254.1484-.05,0.2969-0.0742,0.4453L35.8509,4.2765h2.375ZM25.6087,17.3019a3.1086,3.1086,0,0,0-1.1689.3154,5.5857,5.5857,0,0,0-1.15.7607,9.0886,9.0886,0,0,0-1.0947,1.0947,13.3918,13.3918,0,0,0-.9834,1.3174,15.1927,15.1927,0,0,0-.835,1.4287,14.6324,14.6324,0,0,0-.6309,1.3916,8.6717,8.6717,0,0,0-.39,1.2432,3.2034,3.2034,0,0,0-.0928.9834,3.8961,3.8961,0,0,1,.0557.39,0.7706,0.7706,0,0,0,.1113.3525,0.9352,0.9352,0,0,0,.2412.26,0.6,0.6,0,0,0,.3711.1113,1.9786,1.9786,0,0,0,1.0205-.2227,6.9325,6.9325,0,0,0,1.1133-.6865,9.4588,9.4588,0,0,0,1.15-1.0205,15.53,15.53,0,0,0,1.0947-1.2617q0.5186-.668.9834-1.3916a11.7482,11.7482,0,0,0,.7793-1.41,13.1169,13.1169,0,0,0,.52-1.2988,2.7161,2.7161,0,0,0,.167-1.0576,1.9875,1.9875,0,0,0-.0557-0.4824,0.9518,0.9518,0,0,0-.2227-0.4082,1.25,1.25,0,0,0-.4082-0.2969A1.3643,1.3643,0,0,0,25.6087,17.3019Z"/><path d="M40.0813,16.6711a3.371,3.371,0,0,1,.9092.13,2.2322,2.2322,0,0,1,.8535.4639,2.2929,2.2929,0,0,1,.6123.8535,3.3089,3.3089,0,0,1,.2227,1.2988,4.0858,4.0858,0,0,1-.2041,1.2617,8.1171,8.1171,0,0,1-.501,1.2061,11.8785,11.8785,0,0,1-.668,1.1318q-0.3721.5566-.7051,1.0391a0.79,0.79,0,0,1,.3154.0742,0.4714,0.4714,0,0,0,.3154.0371,3.7433,3.7433,0,0,0,.8535-0.1855,5.2288,5.2288,0,0,0,.9092-0.4082,5.3132,5.3132,0,0,0,.8906-0.6309,5.1165,5.1165,0,0,0,.7979-0.8906,0.6583,0.6583,0,0,1,.1855-0.1855,0.4609,0.4609,0,0,1,.26-0.0742,0.2184,0.2184,0,0,1,.1484.0742,0.1227,0.1227,0,0,1,.0371.1484,4.4768,4.4768,0,0,1-.8535,1.1318,5.4749,5.4749,0,0,1-1.1133.835,5.2346,5.2346,0,0,1-1.2246.501,4.5361,4.5361,0,0,1-1.15.167,2.0318,2.0318,0,0,1-.4082-0.0371,2.1129,2.1129,0,0,0-.4082-0.0371q-0.4087.4087-.9834,0.9463a14.0074,14.0074,0,0,1-1.2246,1.0205,7.177,7.177,0,0,1-1.3545.7979,3.13,3.13,0,0,1-1.4473.2783,2.7345,2.7345,0,0,1-1.0205-.1855,1.9147,1.9147,0,0,1-.8164-0.6494,3.2718,3.2718,0,0,1-.5381-1.1689,6.949,6.949,0,0,1-.1855-1.7441,4.0447,4.0447,0,0,1,.1113-0.9463q0.1113-.4629.1855-0.9463a2.0624,2.0624,0,0,0-.26.3154,1.1268,1.1268,0,0,1-.26.2783,0.9783,0.9783,0,0,0-.1484.0928,0.2241,0.2241,0,0,1-.1113.0557,1.1183,1.1183,0,0,1-.13-0.0742,0.1241,0.1241,0,0,1-.0557-0.1113c0.0254-.0488.1-0.18,0.2227-0.39a5.1218,5.1218,0,0,1,.5566-0.7422q0.3706-.4263.8721-0.9463t1.0947-1.0576A14.9687,14.9687,0,0,1,37.28,17.506a7.1919,7.1919,0,0,1,1.3916-.6123A4.6556,4.6556,0,0,1,40.0813,16.6711Zm0.1113,0.6309a2.1285,2.1285,0,0,0-.9834.26,5.3872,5.3872,0,0,0-1.002.6865,8.7793,8.7793,0,0,0-1.002,1.0205q-0.501.594-.9463,1.2432a13.5547,13.5547,0,0,0-.8164,1.3545,12.3893,12.3893,0,0,0-.6309,1.3916,10.8717,10.8717,0,0,0-.4082,1.2988,4.7978,4.7978,0,0,0-.1484,1.1318,2.0577,2.0577,0,0,0,.0557.4639,1.4022,1.4022,0,0,0,.1855.4453,0.8617,0.8617,0,0,0,.3525.3154,1.2392,1.2392,0,0,0,.5566.1113,3.0079,3.0079,0,0,0,1.0391-.2969,6.0288,6.0288,0,0,0,1.0947-.668,9.1645,9.1645,0,0,0,1.0576-.9463q0.5186-.5376,1.002-1.15a12.0666,12.0666,0,0,0,.8721-1.2617,11.517,11.517,0,0,0,.668-1.28,7.9318,7.9318,0,0,0,.4268-1.2061,3.2648,3.2648,0,0,0,.1113-1.0576,2.179,2.179,0,0,0-.0928-0.6123,2.5782,2.5782,0,0,0-.26-0.5937,1.4514,1.4514,0,0,0-.4453-0.4639A1.2132,1.2132,0,0,0,40.1927,17.3019Z"/><path d="M51.3255,16.7453a1.4992,1.4992,0,0,1,.5381.0928,1.1944,1.1944,0,0,1,.4453.3154,1.7662,1.7662,0,0,1,.334.5566,2.2755,2.2755,0,0,1,.13.8164,3.1337,3.1337,0,0,1-.1113,1.0576,10.8258,10.8258,0,0,1-.3525,1.0576,7.5039,7.5039,0,0,1-.4824,1.002q-0.2783.4834-.501,0.9277,0.3706-.4072.7793-0.8721t0.8535-.9463q0.4453-.4819.9277-0.9648t0.9463-.9277q0.4629-.4453.9277-0.835a9.1093,9.1093,0,0,1,.8906-0.668,5.39,5.39,0,0,1,.8164-0.4453,1.8479,1.8479,0,0,1,.7236-0.167,1.0755,1.0755,0,0,1,.5938.167,1.6361,1.6361,0,0,1,.4453.4268,1.9449,1.9449,0,0,1,.2783.5752,2.3021,2.3021,0,0,1,.0928.6494,3.3523,3.3523,0,0,1-.1855,1.0947,9.0868,9.0868,0,0,1-.4639,1.0947,8.047,8.047,0,0,1-.6494,1.0762q-0.3721.52-.7422,1.0205-0.3721.501-.7236,0.9834t-0.6494.9277a6.0466,6.0466,0,0,0-.4824.8535,1.8808,1.8808,0,0,0-.1855.7793,0.6135,0.6135,0,0,0,.0557.2412,1.4577,1.4577,0,0,0,.13.2412,0.4743,0.4743,0,0,0,.1855.167,0.494,0.494,0,0,0,.2227.0557,4.4491,4.4491,0,0,0,1.373-.6865,12.0265,12.0265,0,0,0,1.41-1.1875q0.7046-.6855,1.373-1.4287,0.668-.7412,1.2988-1.41c0.0488-.0488.1045-0.1113,0.167-0.1855a0.2979,0.2979,0,0,1,.2412-0.1113,0.2184,0.2184,0,0,1,.1484.0742,0.1227,0.1227,0,0,1,.0371.1484,1.6885,1.6885,0,0,1-.26.39q-0.2227.2783-.5566,0.668t-0.7793.8535q-0.4453.4644-.9463,0.9463t-1.002.9277q-0.501.4453-.9648,0.7979a4.35,4.35,0,0,1-.8906.5381,1.9036,1.9036,0,0,1-.7236.1855,1.3359,1.3359,0,0,1-.7236-0.2227,1.8678,1.8678,0,0,1-.5937-0.6123,2.88,2.88,0,0,1-.3525-0.8535,3.8836,3.8836,0,0,1-.1113-0.9092,4.37,4.37,0,0,1,.2227-1.0762,6.5,6.5,0,0,1,.4824-1.0947,12.4,12.4,0,0,1,.668-1.0762q0.3706-.5376.7422-1.0391t0.7422-.9648q0.3706-.4636.6494-0.8535a7.7043,7.7043,0,0,0,.4453-0.6865,1.0613,1.0613,0,0,0,.167-0.4824,0.4494,0.4494,0,0,0-.4082-0.4082,2.168,2.168,0,0,0-.9092.39,10.6847,10.6847,0,0,0-1.2246.9648q-0.687.6123-1.4287,1.373t-1.5029,1.6143q-0.7617.854-1.5029,1.7256t-1.373,1.6514q-0.6313.7793-1.15,1.41T48.06,27.47H45.5735q0.4072-.5933.8721-1.2988,0.4629-.7046.9648-1.4473t1.0205-1.5029q0.5186-.76,1.002-1.4844t0.8906-1.373q0.4072-.6489.7236-1.1689t0.4824-.8721a1.4154,1.4154,0,0,0,.167-0.501,0.8182,0.8182,0,0,0-.0186-0.1855,0.2788,0.2788,0,0,0-.0742-0.13,0.4249,0.4249,0,0,0-.167-0.0928,0.9784,0.9784,0,0,0-.2969-0.0371,1.4937,1.4937,0,0,0-.5937.1484,3.709,3.709,0,0,0-.6865.4082q-0.353.26-.7422,0.6123t-0.7979.7607q-0.4087.4087-.8164,0.8535t-0.7979.8721q-0.39.427-.7607,0.8164t-0.668.6865l-0.1484.1484a0.251,0.251,0,0,1-.1855.0742,0.1605,0.1605,0,0,1-.13-0.0742c-0.0371-.0488-0.043-0.0859-0.0186-0.1113a4.2128,4.2128,0,0,1,.2969-0.4639q0.2227-.3149.5752-0.7607t0.7979-.9463q0.4453-.501.9277-1.0205a12.69,12.69,0,0,1,1.0205-.9834q0.5376-.4636,1.0391-0.835a5.6179,5.6179,0,0,1,.9834-0.5937A2.1408,2.1408,0,0,1,51.3255,16.7453Z"/><path d="M70.0286,16.7453a2.7153,2.7153,0,0,1,.9277.1484,1.9617,1.9617,0,0,1,.668.39,1.5426,1.5426,0,0,1,.39.5752,1.8449,1.8449,0,0,1,.13.668,2.4186,2.4186,0,0,1-.2041.9834,3.8356,3.8356,0,0,1-.5566.8906,6.4127,6.4127,0,0,1-.8164.8164,7.4005,7.4005,0,0,1-1.0391.7236q-0.5757.334-1.1875,0.6123t-1.2617.52q-0.65.2417-1.2988,0.4268-0.65.186-1.2432,0.2969-0.0747.4453-.1484,0.8164a2.4666,2.4666,0,0,0-.0371.7422,2.1006,2.1006,0,0,0,.13.7979,1.61,1.61,0,0,0,.3525.5381,1.2689,1.2689,0,0,0,.501.3154,1.6771,1.6771,0,0,0,.5381.0928,2.9656,2.9656,0,0,0,.7793-0.1113,3.8065,3.8065,0,0,0,.8164-0.334q0.4072-.2227.8535-0.52a10.5022,10.5022,0,0,0,.8721-0.6494q0.4263-.3516.8535-0.7422t0.8164-.7979q0.39-.4072.7793-0.8164,0.39-.4072.7236-0.8164c0.0488-.0488.1045-0.1055,0.167-0.167a0.326,0.326,0,0,1,.2412-0.0928,0.2141,0.2141,0,0,1,.1113.0742,0.1227,0.1227,0,0,1,.0371.1484,2.1673,2.1673,0,0,1-.2412.4082,6.9638,6.9638,0,0,1-.5566.6865q-0.353.39-.7979,0.8721t-0.9834.9648q-0.5391.4834-1.1133,0.9277a8.9267,8.9267,0,0,1-1.1875.7793,6.6591,6.6591,0,0,1-1.2061.52,3.9879,3.9879,0,0,1-1.1875.1855,2.791,2.791,0,0,1-1.2617-.2969,2.9847,2.9847,0,0,1-1.0205-.835,4.0606,4.0606,0,0,1-.668-1.2617,5.0759,5.0759,0,0,1-.2412-1.6143,4.8473,4.8473,0,0,1,.0742-0.835c0.0488-.2842.1113-0.5625,0.1855-0.835a2.4741,2.4741,0,0,0-.2783.334,1.3,1.3,0,0,1-.2783.2969,0.583,0.583,0,0,1-.1484.1113,0.1711,0.1711,0,0,1-.2783-0.0928,0.108,0.108,0,0,1-.0186-0.13c0.1-.1484.2344-0.3457,0.4082-0.5937a9.7634,9.7634,0,0,1,.6494-0.8164q0.39-.4453.8906-0.9463t1.0576-.9834a13.4384,13.4384,0,0,1,1.2061-.9277,11.1131,11.1131,0,0,1,1.3174-.7793,7.115,7.115,0,0,1,1.373-.52A4.5791,4.5791,0,0,1,70.0286,16.7453Zm0.1484,0.4453a2.0856,2.0856,0,0,0-.835.1855,4.3855,4.3855,0,0,0-.8535.501,7.3466,7.3466,0,0,0-.835.7236q-0.4087.4087-.7979,0.8721a9.6406,9.6406,0,0,0-.7236.9834q-0.334.52-.6123,1.002a9.7429,9.7429,0,0,0-.4824.9463,7.2729,7.2729,0,0,0-.3154.835,8.3962,8.3962,0,0,0,1.0947-.2969,9.72,9.72,0,0,0,1.0762-.4453,8.6346,8.6346,0,0,0,1.0391-.5937,11.0223,11.0223,0,0,0,.9463-0.7051,8.1614,8.1614,0,0,0,.8164-0.7793,6.0958,6.0958,0,0,0,.6309-0.8164,4.4939,4.4939,0,0,0,.4082-0.7979,2.1356,2.1356,0,0,0,.1484-0.7607,0.947,0.947,0,0,0-.0557-0.334,0.9015,0.9015,0,0,0-.1484-0.26,0.7529,0.7529,0,0,0-.2412-0.1855A0.6026,0.6026,0,0,0,70.177,17.1906Z"/><path d="M81.718,13.7765q-0.4453.7793-1.0205,1.67t-1.1689,1.8369q-0.5947.9463-1.2246,1.9111t-1.2061,1.8926q-0.5757.9287-1.0947,1.7627t-0.8906,1.5215q-0.3721.687-.5937,1.2061a2.2575,2.2575,0,0,0-.2227.8164,0.2861,0.2861,0,0,0,.0371.2412,1.5569,1.5569,0,0,0,.167.2412,0.79,0.79,0,0,0,.2227.1855,0.5452,0.5452,0,0,0,.2783.0742,1.4811,1.4811,0,0,0,.5938-0.1484,5.0951,5.0951,0,0,0,.7051-0.39,7.1684,7.1684,0,0,0,.7422-0.5566q0.3706-.3149.7422-0.6865t0.7607-.7793q0.39-.4072.7607-0.7979t0.7051-.7607q0.334-.3706.6309-0.7051a2.5432,2.5432,0,0,0,.2227-0.167,0.3939,0.3939,0,0,1,.26-0.0928,0.26,0.26,0,0,1,.167.0928,0.1066,0.1066,0,0,1,.0186.167q-0.186.2607-.501,0.6309-0.3164.3721-.668,0.7979-0.353.4277-.7793,0.8721t-0.8721.8721q-0.4453.4277-.9092,0.7979-0.4644.3721-.9092,0.668a4.371,4.371,0,0,1-.8906.4639,2.3451,2.3451,0,0,1-.8164.167,1.57,1.57,0,0,1-.8906-0.1855,2.1021,2.1021,0,0,1-.6865-0.5937,2.597,2.597,0,0,1-.4082-0.7793A1.7826,1.7826,0,0,1,72.886,25.28a6.4391,6.4391,0,0,1,.501-1.6143q0.3516-.76.7979-1.5215t0.9092-1.5029a15.4444,15.4444,0,0,0,.835-1.5215q-0.7427.8167-1.5215,1.6328t-1.5586,1.6328l-0.13.13a1.0866,1.0866,0,0,1-.167.13,1.1183,1.1183,0,0,0-.0742-0.13,1.365,1.365,0,0,1-.0742-0.13q0.5933-.668,1.1318-1.2617t1.0391-1.15q0.501-.5566.9277-1.0391t0.835-.9648q0.4072-.4819.7793-0.9648t0.7607-.9834q0.39-.501.7607-1.0576t0.7793-1.1875H77.3391l0.5566-.5566h1.8555q0.5933-.9646,1.1875-1.93t1.1875-1.93h2.375q-0.6313.9653-1.2246,1.93T82.0891,13.257h4.3418l-0.52.52H81.718Z"/></svg>
