<?xml version="1.0" encoding="utf-8"?>
<!-- Generator: Adobe Illustrator 16.0.0, SVG Export Plug-In . SVG Version: 6.00 Build 0)  -->
<!DOCTYPE svg PUBLIC "-//W3C//DTD SVG 1.1//EN" "http://www.w3.org/Graphics/SVG/1.1/DTD/svg11.dtd">
<svg version="1.1" id="图层_1" xmlns="http://www.w3.org/2000/svg" xmlns:xlink="http://www.w3.org/1999/xlink" x="0px" y="0px"
     width="200px" height="200px" viewBox="0 0 200 200" enable-background="new 0 0 200 200" xml:space="preserve">
  <defs>
    <radialGradient id="gearRadialGradient" cx="-438.7783" cy="304.3115" r="57.3" gradientTransform="matrix(0.9952 0 0 -0.9947 536.3671 405.1465)" gradientUnits="userSpaceOnUse">
      <stop  offset="0.7957" style="stop-color:#000000;stop-opacity:0"/>
      <stop  offset="1" style="stop-color:#000000;stop-opacity:0.1"/>
    </radialGradient>
  </defs>
  <g>
    <path fill="#F98DB9" d="M166.245,54.391l-6.316-1.289c-7.044-1.439-10.523-8.038-7.736-14.665l1.918-4.553
        c2.789-6.627-0.429-9.965-7.151-7.416l-4.944,1.874c-6.724,2.547-13.724-1.057-15.555-8.009l-0.692-2.628
        c-1.833-6.953-6.489-7.679-10.354-1.614l-1.586,2.487c-3.86,6.063-11.863,7.688-17.785,3.609l-2.43-1.676
        c-5.922-4.078-9.928-1.594-8.905,5.522l0.386,2.689c1.022,7.117-4.02,13.163-11.202,13.437l-5.288,0.201
        c-7.185,0.274-8.848,4.604-3.697,9.617l3.542,3.448c5.15,5.016,4.517,12.449-1.412,16.519l-5.313,3.649
        c-5.928,4.069-5.013,8.574,2.031,10.014l6.316,1.287c7.044,1.438,10.524,8.035,7.736,14.663l-1.919,4.558
        c-2.788,6.627,0.43,9.965,7.152,7.416l4.949-1.875c6.722-2.55,13.723,1.055,15.554,8.006l0.691,2.635
        c1.83,6.951,6.488,7.679,10.352,1.613l1.588-2.492c3.861-6.063,11.865-7.688,17.783-3.606l2.434,1.676
        c5.92,4.082,9.928,1.599,8.904-5.52l-0.389-2.695c-1.021-7.114,4.021-13.164,11.205-13.435l5.285-0.202
        c7.184-0.272,8.85-4.6,3.697-9.615l-3.541-3.448c-5.152-5.015-4.518-12.448,1.41-16.517l5.316-3.65
        C174.204,60.335,173.29,55.829,166.245,54.391z M119.936,94.336c-13.438,2.725-26.546-5.959-29.272-19.401
        c-2.727-13.438,5.96-26.543,19.4-29.271c13.438-2.725,26.545,5.96,29.271,19.399C142.06,78.501,133.375,91.61,119.936,94.336z">
      <animateTransform  type="rotate" fill="remove" values="0 115 70; -360 115 70;" restart="always" dur="10s" attributeName="transform" calcMode="linear" additive="replace" accumulate="none" attributeType="XML" repeatCount="indefinite"></animateTransform>
    </path>
    <path fill="#66DBFF" d="M105.223,158.979l-2.877-2.021c-4.185-2.938-4.581-8.23-0.879-11.758l3.317-3.168
        c3.703-3.527,2.551-6.588-2.56-6.801l-4.584-0.189c-5.109-0.213-8.301-4.451-7.094-9.422l0.832-3.416
        c1.209-4.971-1.431-6.949-5.863-4.398l-3.262,1.877c-4.435,2.551-9.757,0.814-11.831-3.863l-0.784-1.768
        c-2.074-4.674-5.428-4.658-7.454,0.039l-0.832,1.93c-2.025,4.695-7.462,6.742-12.084,4.547l-1.896-0.898
        c-4.621-2.193-7.153,0.008-5.628,4.891l0.574,1.844c1.524,4.883-1.33,9.701-6.344,10.707l-3.692,0.74
        c-5.014,1.006-5.691,4.232-1.506,7.172l2.879,2.021c4.186,2.938,4.582,8.229,0.881,11.763l-3.321,3.164
        c-3.701,3.528-2.55,6.59,2.56,6.803l4.585,0.188c5.109,0.211,8.301,4.449,7.094,9.42l-0.831,3.416
        c-1.209,4.97,1.43,6.949,5.862,4.397l3.264-1.879c4.435-2.549,9.757-0.813,11.831,3.863l0.784,1.77
        c2.074,4.677,5.427,4.658,7.453-0.038l0.833-1.931c2.024-4.697,7.461-6.742,12.081-4.547l1.897,0.899
        c4.62,2.194,7.151-0.004,5.627-4.888l-0.576-1.846c-1.524-4.883,1.332-9.701,6.346-10.707l3.691-0.738
        C108.73,165.146,109.408,161.918,105.223,158.979z M73.528,166.674c-8.106,3.053-17.151-1.045-20.201-9.148
        c-3.053-8.104,1.043-17.15,9.149-20.199c8.104-3.055,17.149,1.045,20.202,9.146C85.729,154.578,81.633,163.621,73.528,166.674z">
      <animateTransform  type="rotate" fill="remove" values="0 68 152; 360 68 152;" restart="always" dur="10s" attributeName="transform" calcMode="linear" additive="replace" accumulate="none" attributeType="XML" repeatCount="indefinite"></animateTransform>
    </path>
    <path fill="#FFCD66" d="M166.938,154.471l-2.936-1.385c-3.277-1.543-4.193-5.188-2.038-8.096l1.482-2.002
        c2.153-2.91,0.979-4.926-2.615-4.482l-2.646,0.328c-3.595,0.445-6.588-2.152-6.655-5.773l-0.025-1.369
        c-0.067-3.621-2.261-4.531-4.875-2.021l-1.071,1.025c-2.612,2.508-6.725,2.35-9.135-0.354l-0.99-1.107
        c-2.41-2.701-4.668-1.965-5.016,1.641l-0.131,1.361c-0.348,3.604-3.536,5.963-7.086,5.242l-2.609-0.533
        c-3.549-0.723-4.88,1.197-2.955,4.264l1.321,2.111c1.924,3.068,0.728,6.629-2.659,7.916l-3.037,1.148
        c-3.388,1.285-3.477,3.6-0.199,5.145l2.938,1.385c3.278,1.543,4.191,5.188,2.038,8.096l-1.481,2.002
        c-2.156,2.91-0.979,4.928,2.613,4.48l2.646-0.326c3.595-0.445,6.591,2.154,6.658,5.775l0.023,1.367
        c0.066,3.619,2.261,4.529,4.874,2.023l1.071-1.029c2.611-2.508,6.725-2.348,9.136,0.354l0.989,1.109
        c2.408,2.702,4.666,1.965,5.016-1.64l0.132-1.362c0.351-3.605,3.535-5.964,7.084-5.24l2.61,0.53
        c3.549,0.726,4.879-1.194,2.956-4.264l-1.321-2.108c-1.923-3.068-0.727-6.632,2.66-7.916l3.036-1.152
        C170.125,158.328,170.217,156.016,166.938,154.471z M139.596,166.447c-5.771-0.225-10.271-5.084-10.043-10.854
        c0.223-5.772,5.084-10.271,10.854-10.045c5.771,0.224,10.271,5.086,10.044,10.854C150.225,162.172,145.364,166.672,139.596,166.447
        z">
      <animateTransform  type="rotate" fill="remove" values="0 140 156; -360 140 156;" restart="always" dur="10s" attributeName="transform" calcMode="linear" additive="replace" accumulate="none" attributeType="XML" repeatCount="indefinite"></animateTransform>
    </path>
  </g>
  <g>
    <ellipse fill="url(#gearRadialGradient)" cx="99.695" cy="102.447" rx="57.025" ry="56.996"/>
    <path fill="#F5F5F5" fill-opacity="0.7" d="M0,4.575v190.851h200V4.575H0z M99.726,159.443c-31.479,0-56.995-25.519-56.995-56.996
        c0-31.478,25.517-56.997,56.995-56.997c31.479,0,56.995,25.519,56.995,56.997C156.721,133.926,131.205,159.443,99.726,159.443z"/>
  </g>
</svg>
